<svg id="Logo_Small" data-name="Logo Small" xmlns="http://www.w3.org/2000/svg" viewBox="0 0 1334.23 319.95"><defs><style>.cls-1{fill:#fc6;}.cls-1,.cls-2,.cls-3{stroke:#000;stroke-miterlimit:10;stroke-width:0.75px;}.cls-2{fill:#4d4d4d;}.cls-3{fill:#e6e6e6;}</style></defs><path class="cls-1" d="M551.67,461.18H530.3l-11.74-36.56H468.37l-11.18,36.56H435.82L483.1,320.63h21.62Zm-38.53-54.62-17.49-55.44a65.8,65.8,0,0,1-1.94-10.62h-.57a59.52,59.52,0,0,1-2,10.44l-17.41,55.62Z" transform="translate(-14.14 -202.04)"/><path class="cls-1" d="M678.14,461.18h-21.7l-60-103.62a65.93,65.93,0,0,1-4.86-9.89h-.48q.72,5.44.73,20.51v93H573V320.63h23l58.21,101.63q4.13,7.26,5.5,10.07h.41a162.87,162.87,0,0,1-.89-20.14V320.63h18.94Z" transform="translate(-14.14 -202.04)"/><path class="cls-1" d="M810.36,451.66Q791.57,463.54,767,463.54q-28.1,0-44.93-19.14t-16.84-51.54q0-32.76,18.66-53.67T772,318.27c13.49,0,18.14,2.33,27.74,7l6.91,22.32q-14.82-10.24-35.86-10.25-19.85,0-32.47,15t-12.63,39.29q0,25,11.62,39.06t31.45,14q13.13,0,22.1-5.44V404H768.35l-4.14-18.51h46.15Z" transform="translate(-14.14 -202.04)"/><path class="cls-1" d="M1075,520.35l-29.1-59.6s17,2.79,18.25-58c.49-23.65-18-64.37-18-64.37l2.78-17.79h25Z" transform="translate(-14.14 -202.04)"/><path class="cls-1" d="M1215.78,461.18h-21.7l-60-103.62a65.93,65.93,0,0,1-4.86-9.89h-.48q.72,5.44.73,20.51V490.75l-18.87,27.7V320.63h23l58.21,101.63q4.13,7.26,5.5,10.07h.41a162.87,162.87,0,0,1-.89-20.14V320.63h18.94Z" transform="translate(-14.14 -202.04)"/><path class="cls-1" d="M1348,451.66q-18.8,11.88-43.32,11.88-28.1,0-44.93-19.14t-16.84-51.54q0-32.76,18.66-53.67t48-20.92c13.49,0,18.14,2.33,27.74,7l6.91,22.32q-14.82-10.24-35.86-10.25-19.85,0-32.47,15t-12.63,39.29q0,25,11.62,39.06t31.45,14q13.13,0,22.1-5.44V404H1306l-4.14-18.51H1348Z" transform="translate(-14.14 -202.04)"/><path class="cls-2" d="M139.94,435.61s-.32,36.29,0,37.46,9.5,2.36,9.5,2.36.24-26.39-3.53-34.4-1.29-11.32-1.29-11.32a149.43,149.43,0,0,1,4.83,15.56c1.17,5.65,1.64,30.16,1.64,30.16s-.81,2.09,5.19,0c8.26-2.88,19.09-12.49,19.09-12.49s-2.05-10.6-3.7-17.67-21.29-29.93-28.83-35.12-8.72-10.7-16.49-11.83-12.73-2.45-20.74,4.34S90.76,436.24,90.4,442.89c-.5,9.08-2.87,18.19,2.2,24.38,14.27,17.44,15.6-9.51,15.6-9.51s-3.5-25.83-.68-31.11c2.4-4.5,11.87-12.89,18-13.11,5.6-.21,10.89,2.29,12.3,6.53S139.94,435.61,139.94,435.61Z" transform="translate(-14.14 -202.04)"/><path class="cls-2" d="M86.17,452S75,429.24,75.88,424.41c1.58-9,6.31-23.68,16.72-31s8.53-8,14-8.48a56.26,56.26,0,0,0,8-1.13l8-10.54,36.69,52.84S133.46,392,121.91,392.66,101.63,402.14,96,411.33,86.17,452,86.17,452Z" transform="translate(-14.14 -202.04)"/><path class="cls-1" d="M243.41,207.11l14.82,72S237,262.58,229.29,256.19c-11-9.13-20.35-16.06-32.81-22.85a84.85,84.85,0,0,0-41.21-10.18,88.53,88.53,0,0,0-48.65,14.21q-22.22,14.2-36,41.63T56.8,340.72q0,35.26,14,62.89t37.88,42.52A95.51,95.51,0,0,0,160.16,461q26,0,53.25-14.93c18.14-9.95,31.3-22.7,44.61-40.65,0,0,10-20.05,22.45-24,13.78-4.35,30.23-8.17,30.23-8.17s-12.45,1.36-32.58,33.76A253.46,253.46,0,0,1,250,445.55c-13.24,15.07-30.34,23.37-46.4,29.76S170,484.9,150.77,484.9q-63.63,0-103.37-47.18-32.88-39.15-32.89-93.18,0-39.75,18.21-72A137.09,137.09,0,0,1,82.93,221.4a132.94,132.94,0,0,1,69-19c13.18,0,25.5,1,44.6,10.44C241,234.9,243.41,207.11,243.41,207.11Z" transform="translate(-14.14 -202.04)"/><path class="cls-3" d="M169.38,361.38s-3.34,30.72,0,33.73,26.17,18.61,52.73,18.61c5.76,0,15.75-2.78,16.87-4.45s4.74-2.57,7.38-6,9.1-4,10.33-4.56,2.89-5.05-4.91-4.47-10,1.68-18.37,6.14-20.6-6.14-20.6-6.14l-15-12.24s1.67-12.24.56-14.47.63-6.32.88-12.9c.23-6-4.22-12.71-15.24-8.44C166.7,352.87,169.38,361.38,169.38,361.38Z" transform="translate(-14.14 -202.04)"/><path class="cls-3" d="M205.05,416.22s-9,2.69-11.23,6.28l-2.24,3.6s-6.74-13.92-9.88-16.17-10.33-6.68-10.33-6.68Z" transform="translate(-14.14 -202.04)"/><path class="cls-3" d="M255.8,387.86c-1,.18-2.5,1.54-2,2.53s2.64,1.23,3.94,2.42,2.53,4.33,1.54,5.88-9,2.78-10.95,5.25-5.63,3.72-7.12,5.2-1,2.73-1,2.73-17.32,3.21-22.76,6.43-12.4,7.8-12.4,7.8a53.11,53.11,0,0,1,4.91-4.45,54.41,54.41,0,0,1,6-3.48s-12.27-1.74-17.46,2.22-5.81,7.31-5.81,7.31.5,9.41,4.46,12.62,8.9,7.67,8.9,7.67a32.24,32.24,0,0,0,14.11-4.2c6.43-4,30.23-30,30.23-30s4.94-6.27,10.67-9.32,6.61-6.51,6.61-7.5c0-7.6-1.45-12.06-2.47-13.12s-3.36-.94-3.72,0,.75,3,1.49,5.2a10.5,10.5,0,0,1,.25,4.7,33.1,33.1,0,0,0-2.44-3.41C260.05,389.65,256.77,387.69,255.8,387.86Z" transform="translate(-14.14 -202.04)"/><path class="cls-3" d="M200.13,380.93s12.16,10.31,16.08,12.62,6.67,5.33,12.37,5.15,8.91-2.67,13.86-4.16a62.19,62.19,0,0,1,10.64-2s-2.84-2-1.3-4a5.53,5.53,0,0,1,4.51-2.43c1.44-.07,4,1.94,4,1.94a16.59,16.59,0,0,1,0-4.65c.39-1.8,1.41-1.78,2.4-2,2.1-.47,3-.13,4.23,1.25a7.07,7.07,0,0,1,.83,2.69s9.36-5.94,11.59-9.41,7.92-9.4,6.93-22.27-5.69-23.26-12.62-28.21-14.85-5.44-17.82-5.69-3.71-3-10.39-2S223.58,326.7,220,329.49s-10,9.38-10.7,12.34.25,7.92.25,7.92-7.43,6.66-7.92,8.41a44.76,44.76,0,0,0-1.48,10.65C199.88,374.5,200.13,380.93,200.13,380.93Z" transform="translate(-14.14 -202.04)"/><path class="cls-3" d="M113.27,460.37s8.42,26.72,9.65,30.93a93.1,93.1,0,0,1,1.73,9.4s13.36.74,16.09.25,14.84,1.48,19.79-1,5.45,0,5.69-1.48,4.11,1.23,5.15-2,0-4,0-4,3,2,3.27-1.74l.24-3.71s1.49.5,2.23-2.22,0-3.19,0-3.19.27-.27-1-3c-1.48-3.22-8.16-.5-9.9,1.48s-20.07,1.68-21.39,1.49c-5.08-.74-2.86-30.93-2.86-30.93a128.45,128.45,0,0,1-.24-15.84c.23-5.58-1.24-12.62-2.48-14.6s-8.41-4.7-11.63-3.22-12.37,6.68-14.35,11.38-2.48,16.58-2.48,21.29S113.27,460.37,113.27,460.37Z" transform="translate(-14.14 -202.04)"/><path class="cls-3" d="M113,518s-14.85-15-14.35-16.78S96,496,100.15,493.53s17.32-11.39,17.32-11.39,4.73,7.43,4.22,10.64,1.33,15.84,0,20.79-4.26,7.92-6,6.93" transform="translate(-14.14 -202.04)"/><path class="cls-3" d="M157.31,365.59l10.58-7.43s-1.42,10.4-1.17,14.61-.25,13.85-.25,13.85Z" transform="translate(-14.14 -202.04)"/><path class="cls-2" d="M135.13,370.55h16.49l10.71,27.23s.85,7.06,3.09,7.72,10.25,4.07,11.19,9.07,7.31,16,7.75,18,4,6.59,6.49,8.35,12.74,5,14.2,18.06a40.24,40.24,0,0,1-7.83,28.87s-3-23.82-6.52-27.7c-4-4.41-13.26-4.3-13.26-4.3l-26-49.66-21.08-32.3,5.25-1.1,19.12,31.87Z" transform="translate(-14.14 -202.04)"/><path class="cls-1" d="M436.36,367s-7.82,10.55-17.76,15.55a11.82,11.82,0,0,1-3.92,1.15V320.63H395.25v58.63c-5.19-1.79-10.73-3.54-16.48-4.07-15.24-1.39-19.71-4.15-43.83,4.65V320.63H315.51v75.63c-1.18,1.35-2.36,2.74-3.56,4.16C302.44,411.69,297,419.14,297,419.14A79.9,79.9,0,0,1,315.51,409v52.23h19.43V403.39a96.52,96.52,0,0,1,40,1.47A51.31,51.31,0,0,0,395.25,406v55.2h19.43V397.72C430.33,386.07,436.36,367,436.36,367Z" transform="translate(-14.14 -202.04)"/><path class="cls-1" d="M828.6,408l0-.06C828.58,408,828.57,408,828.6,408Z" transform="translate(-14.14 -202.04)"/><path class="cls-1" d="M869.76,402.43c42.42,11.1,51.59-27.9,51.59-27.9s-1.89,2.57-11.1,7.2c-9,4.53-19.2-2.19-33.9-3.53a144,144,0,0,0-15.31-.74V339.33h47.2v-18.7H841.61v65.46a96.51,96.51,0,0,0-13,21.86c.37-.54,4.17-4.86,13-6.95v60.18h69.47V442.49H861V400.62A82.51,82.51,0,0,1,869.76,402.43Z" transform="translate(-14.14 -202.04)"/><path class="cls-1" d="M1001.07,457.4l-17.25-.79c-3.88-.65-9.24-2.37-12.38-6.9-5.34-7.68,7.89-9.76,9.91-29.87a33,33,0,0,0,.26-6.4s-1.06.62-4.14,2.06-8.52,1.11-8.52,1.11,3.23-3.55,6.73-4.84a12.42,12.42,0,0,0,5.37-3.85s1.06-4.69-9.61-24.43-14.06-35-7.93-51.66c2.22-6,3.24-16.59,3.24-16.59L965,209H941.58l1.62,144.65-.07-.17,1.39,117.66h66.3Z" transform="translate(-14.14 -202.04)"/></svg>